<?xml version="1.0" encoding="UTF-8"?>
<svg version="1.1" xmlns="http://www.w3.org/2000/svg" width="512" height="512">
<path d="M0 0 C12.59968483 4.4251442 24.1387143 10.45973099 34.0625 19.5 C35.51076172 20.80904297 35.51076172 20.80904297 36.98828125 22.14453125 C43.84964677 28.56714576 49.1065516 35.49975539 54.1015625 43.4453125 C55.88936778 46.46890873 55.88936778 46.46890873 58.0625 48.5 C58.475 47.60539062 58.8875 46.71078125 59.3125 45.7890625 C63.0607795 37.86246321 67.14349836 31.055707 73.0625 24.5 C73.62710938 23.86578125 74.19171875 23.2315625 74.7734375 22.578125 C87.9395042 8.60849555 107.00524068 0.15162156 126.0859375 -0.73828125 C139.08706205 -1.06480032 150.3999038 1.32502499 162.75 5.3125 C166.49821579 6.50424041 169.20250183 6.61736789 173.0625 5.5 C173.3925 7.15 173.7225 8.8 174.0625 10.5 C172.5775 10.995 172.5775 10.995 171.0625 11.5 C170.89814453 13.19382812 170.89814453 13.19382812 170.73046875 14.921875 C170.12708085 19.71106903 168.84980553 24.16368606 167.375 28.75 C167.1080835 29.58192871 166.84116699 30.41385742 166.56616211 31.27099609 C163.06753031 41.86239274 158.49515801 51.11849203 151.0625 59.5 C150.28261719 60.38558594 149.50273437 61.27117188 148.69921875 62.18359375 C136.84278573 74.84802072 120.06451464 84.5953559 102.39038086 85.66113281 C99.26014531 85.707044 96.13054402 85.73527669 93 85.75 C91.39608398 85.7809375 91.39608398 85.7809375 89.75976562 85.8125 C82.05406537 85.8497481 75.4732008 84.61893627 68.0625 82.5 C68.0625 87.45 68.0625 92.4 68.0625 97.5 C81.70597404 95.42355364 94.67101112 92.76872498 107.72998047 88.29541016 C119.3576138 84.33028252 130.94292354 80.6312641 143.0625 78.5 C143.79726563 78.36851563 144.53203125 78.23703125 145.2890625 78.1015625 C174.40903001 73.94156714 204.19191264 81.96069686 227.59716797 99.49414062 C264.59157979 128.22805895 282.08396495 173.14533849 288.0625 218.5 C297.08952307 294.21170302 276.30221872 373.96657269 229.68359375 434.59375 C225.35895247 439.94878407 220.80977338 445.09065685 216.16796875 450.171875 C214.31183287 452.22429983 212.52879008 454.31845709 210.75 456.4375 C197.75725118 471.23974124 181.23937835 483.0409762 164.0625 492.5 C163.11189697 493.0256958 163.11189697 493.0256958 162.14208984 493.56201172 C151.85900368 499.16744371 141.33107907 503.32201327 130.0625 506.5 C128.26039063 507.01240234 128.26039063 507.01240234 126.421875 507.53515625 C104.96878169 512.52694744 80.06682617 511.30769134 59.33203125 503.80078125 C55.78902123 502.59955394 53.69013138 502.26898411 50.0625 503.5 C48.94617188 503.79777344 47.82984375 504.09554688 46.6796875 504.40234375 C44.20007887 505.08824802 41.72090571 505.77572864 39.2421875 506.46484375 C29.22941013 509.02568446 19.713665 509.85820009 9.375 509.8125 C8.71197876 509.81034485 8.04895752 509.8081897 7.36584473 509.80596924 C-2.75794535 509.75318077 -12.15526238 509.28143022 -21.9375 506.5 C-22.99420898 506.20198486 -22.99420898 506.20198486 -24.07226562 505.89794922 C-35.31937123 502.6479739 -45.70676227 498.16565855 -55.9375 492.5 C-56.57816406 492.14534668 -57.21882813 491.79069336 -57.87890625 491.42529297 C-70.19776441 484.50993396 -81.14954001 476.29350678 -91.5390625 466.7109375 C-93.16067923 465.21609211 -94.80208894 463.74248089 -96.4609375 462.2890625 C-147.50424434 417.52800881 -173.50618903 346.28446493 -180.9375 280.5 C-181.07027344 279.345 -181.20304687 278.19 -181.33984375 277 C-181.6592764 273.49936823 -181.83776826 270.01225805 -181.9375 266.5 C-181.96473145 265.56043457 -181.99196289 264.62086914 -182.02001953 263.65283203 C-183.24948629 212.79621019 -173.79676009 157.75592353 -138.9375 118.5 C-138.23238281 117.66339844 -137.52726562 116.82679687 -136.80078125 115.96484375 C-118.46607058 94.6676125 -91.19925989 79.72110504 -62.9375 77.5 C-40.9663292 76.37671578 -22.52259497 80.13530608 -1.9375 87.5 C11.45446041 92.2906966 24.9641961 95.62522555 39.0625 97.5 C37.25019197 76.03845752 31.57126915 58.11244864 15.4375 42.875 C5.28073069 34.43430566 -6.71993037 29.51031808 -19.3125 26 C-23.26928948 24.83180501 -26.04960061 23.56839311 -28.9375 20.5 C-31.59136177 15.10963025 -31.27113017 10.26499624 -29.9375 4.5 C-23.77609755 -6.59483309 -10.13379785 -3.37250535 0 0 Z " fill="#ED2A34" transform="translate(201.9375,2.5)"/>
<path d="M0 0 C12.59968483 4.4251442 24.1387143 10.45973099 34.0625 19.5 C35.51076172 20.80904297 35.51076172 20.80904297 36.98828125 22.14453125 C43.84964677 28.56714576 49.1065516 35.49975539 54.1015625 43.4453125 C55.88936778 46.46890873 55.88936778 46.46890873 58.0625 48.5 C58.475 47.60539062 58.8875 46.71078125 59.3125 45.7890625 C63.0607795 37.86246321 67.14349836 31.055707 73.0625 24.5 C73.62710938 23.86578125 74.19171875 23.2315625 74.7734375 22.578125 C87.9395042 8.60849555 107.00524068 0.15162156 126.0859375 -0.73828125 C139.08706205 -1.06480032 150.3999038 1.32502499 162.75 5.3125 C166.49821579 6.50424041 169.20250183 6.61736789 173.0625 5.5 C173.3925 7.15 173.7225 8.8 174.0625 10.5 C172.5775 10.995 172.5775 10.995 171.0625 11.5 C170.89814453 13.19382812 170.89814453 13.19382812 170.73046875 14.921875 C170.12708085 19.71106903 168.84980553 24.16368606 167.375 28.75 C167.1080835 29.58192871 166.84116699 30.41385742 166.56616211 31.27099609 C163.06753031 41.86239274 158.49515801 51.11849203 151.0625 59.5 C150.28261719 60.38558594 149.50273437 61.27117188 148.69921875 62.18359375 C136.84278573 74.84802072 120.06451464 84.5953559 102.39038086 85.66113281 C99.26014531 85.707044 96.13054402 85.73527669 93 85.75 C91.39608398 85.7809375 91.39608398 85.7809375 89.75976562 85.8125 C82.05406537 85.8497481 75.4732008 84.61893627 68.0625 82.5 C68.0625 87.45 68.0625 92.4 68.0625 97.5 C81.70597404 95.42355364 94.67101112 92.76872498 107.72998047 88.29541016 C119.3576138 84.33028252 130.94292354 80.6312641 143.0625 78.5 C143.79726563 78.36851563 144.53203125 78.23703125 145.2890625 78.1015625 C174.40903001 73.94156714 204.19191264 81.96069686 227.59716797 99.49414062 C264.59157979 128.22805895 282.08396495 173.14533849 288.0625 218.5 C297.08952307 294.21170302 276.30221872 373.96657269 229.68359375 434.59375 C225.35895247 439.94878407 220.80977338 445.09065685 216.16796875 450.171875 C214.31183287 452.22429983 212.52879008 454.31845709 210.75 456.4375 C197.75725118 471.23974124 181.23937835 483.0409762 164.0625 492.5 C163.11189697 493.0256958 163.11189697 493.0256958 162.14208984 493.56201172 C151.85900368 499.16744371 141.33107907 503.32201327 130.0625 506.5 C128.26039063 507.01240234 128.26039063 507.01240234 126.421875 507.53515625 C104.96878169 512.52694744 80.06682617 511.30769134 59.33203125 503.80078125 C55.78902123 502.59955394 53.69013138 502.26898411 50.0625 503.5 C48.94617188 503.79777344 47.82984375 504.09554688 46.6796875 504.40234375 C44.20007887 505.08824802 41.72090571 505.77572864 39.2421875 506.46484375 C29.22941013 509.02568446 19.713665 509.85820009 9.375 509.8125 C8.71197876 509.81034485 8.04895752 509.8081897 7.36584473 509.80596924 C-2.75794535 509.75318077 -12.15526238 509.28143022 -21.9375 506.5 C-22.99420898 506.20198486 -22.99420898 506.20198486 -24.07226562 505.89794922 C-35.31937123 502.6479739 -45.70676227 498.16565855 -55.9375 492.5 C-56.57816406 492.14534668 -57.21882813 491.79069336 -57.87890625 491.42529297 C-70.19776441 484.50993396 -81.14954001 476.29350678 -91.5390625 466.7109375 C-93.16067923 465.21609211 -94.80208894 463.74248089 -96.4609375 462.2890625 C-147.50424434 417.52800881 -173.50618903 346.28446493 -180.9375 280.5 C-181.07027344 279.345 -181.20304687 278.19 -181.33984375 277 C-181.6592764 273.49936823 -181.83776826 270.01225805 -181.9375 266.5 C-181.96473145 265.56043457 -181.99196289 264.62086914 -182.02001953 263.65283203 C-183.24948629 212.79621019 -173.79676009 157.75592353 -138.9375 118.5 C-138.23238281 117.66339844 -137.52726562 116.82679687 -136.80078125 115.96484375 C-118.46607058 94.6676125 -91.19925989 79.72110504 -62.9375 77.5 C-40.9663292 76.37671578 -22.52259497 80.13530608 -1.9375 87.5 C11.45446041 92.2906966 24.9641961 95.62522555 39.0625 97.5 C37.25019197 76.03845752 31.57126915 58.11244864 15.4375 42.875 C5.28073069 34.43430566 -6.71993037 29.51031808 -19.3125 26 C-23.26928948 24.83180501 -26.04960061 23.56839311 -28.9375 20.5 C-31.59136177 15.10963025 -31.27113017 10.26499624 -29.9375 4.5 C-23.77609755 -6.59483309 -10.13379785 -3.37250535 0 0 Z M106.44921875 91.18359375 C97.72978656 94.35261884 89.22768328 96.86219802 80.0625 98.5 C79.06605469 98.70496094 78.06960938 98.90992187 77.04296875 99.12109375 C47.74658132 104.57420823 17.08940001 98.51242219 -10.26879883 87.90893555 C-17.38016927 85.20104173 -24.4281825 83.69195516 -31.9375 82.5 C-32.86288574 82.32871582 -33.78827148 82.15743164 -34.74169922 81.98095703 C-63.5601374 77.64388115 -93.11911672 83.57847707 -116.74414062 100.81835938 C-120.6503998 103.85656096 -124.31547269 107.13161263 -127.9375 110.5 C-128.80890625 111.29019531 -129.6803125 112.08039063 -130.578125 112.89453125 C-160.85949514 141.60469822 -174.1228539 184.97666809 -178.67138672 225.2355957 C-178.90696845 227.24020168 -179.19750006 229.23818221 -179.49609375 231.234375 C-186.24928148 285.64674288 -170.4713519 345.78440895 -144.9375 393.5 C-144.5441748 394.23734375 -144.15084961 394.9746875 -143.74560547 395.734375 C-117.71059789 444.2435255 -78.04265396 485.83508392 -24.9375 503.5 C-2.69393316 510.19923895 24.60924864 510.62752998 46.0625 501.125 C53.3948773 497.90770351 53.3948773 497.90770351 57.6875 499.375 C59.15116607 500.07224735 60.60897737 500.78184669 62.0625 501.5 C64.23810304 502.24407242 66.42691901 502.95021683 68.625 503.625 C69.65753906 503.95757812 70.69007813 504.29015625 71.75390625 504.6328125 C89.17058762 509.19775142 111.7451864 508.24334918 129.0625 503.5 C130.14402344 503.2215625 131.22554688 502.943125 132.33984375 502.65625 C157.02201707 495.71532369 179.2593183 481.88033211 197.9140625 464.49609375 C199.87290872 462.67614754 201.88545875 460.96282627 203.9375 459.25 C250.52991884 418.35324759 275.93538894 353.25243093 285.0625 293.5 C285.34613403 291.75372314 285.34613403 291.75372314 285.63549805 289.97216797 C287.30772104 278.532524 287.40096744 267.14912697 287.37817383 255.60205078 C287.37501848 252.2695221 287.39854161 248.9378882 287.42382812 245.60546875 C287.46250267 232.2881026 286.48154173 219.59169438 284.0625 206.5 C283.82588292 205.14117028 283.59046875 203.78213037 283.35644531 202.42285156 C278.01253879 172.26118913 265.4568323 142.54294689 245.0625 119.5 C244.09763672 118.33791016 244.09763672 118.33791016 243.11328125 117.15234375 C225.27469211 96.05721704 197.66523738 82.31075604 170.23510742 79.66552734 C147.40978685 77.92650416 127.68300395 83.43259673 106.44921875 91.18359375 Z " fill="#0B0202" transform="translate(201.9375,2.5)"/>
<path d="M0 0 C19.52768262 16.67192324 30.19007605 39.59645871 33.375 64.75 C33.70470081 69.11113225 33.58327683 73.37618651 33.375 77.75 C25.455 77.75 17.535 77.75 9.375 77.75 C9.2925 75.749375 9.21 73.74875 9.125 71.6875 C7.79476853 53.83723172 1.38950423 38.08346178 -10.625 24.75 C-11.17800781 24.11578125 -11.73101562 23.4815625 -12.30078125 22.828125 C-21.79965516 12.58112975 -34.74543444 7.24831331 -48 3.75 C-53.43596642 2.27237819 -56.80786488 0.89431813 -60.625 -3.25 C-62.23132723 -6.46265446 -62.10431944 -9.76521812 -61.625 -13.25 C-59.60997111 -17.00212276 -58.17033858 -18.88644095 -54.625 -21.25 C-35.50157023 -25.25204951 -14.06627291 -11.61573099 0 0 Z " fill="#3EB45D" transform="translate(234.625,23.25)"/>
<path d="M0 0 C2.94888017 8.84664052 -4.83867879 23.50452839 -8.8125 31.5625 C-18.44183824 50.19427845 -35.0035353 63.07729813 -54.8125 69.5 C-61.90806726 71.18763492 -68.91051206 71.37986457 -76.1875 71.4375 C-77.80845581 71.45296875 -77.80845581 71.45296875 -79.4621582 71.46875 C-86.76533953 71.38866028 -94.1771496 70.80406176 -101 68 C-102.29316446 64.12050661 -102.77483386 62.07536927 -102 58 C-98.91973935 55.22817888 -95.33406613 53.43159831 -91.6875 51.5 C-90.07597046 50.60486694 -90.07597046 50.60486694 -88.43188477 49.69165039 C-85.55071264 48.09552467 -82.65834431 46.52240749 -79.76049805 44.95684814 C-76.89504409 43.39944551 -74.0497616 41.8063126 -71.203125 40.21484375 C-66.67669419 37.68537732 -62.14432999 35.16724999 -57.60546875 32.66015625 C-48.66456193 27.71525816 -39.77739046 22.67632045 -30.88964844 17.63671875 C-27.80583731 15.89002478 -24.71960836 14.1476635 -21.6328125 12.40625 C-20.58577148 11.81537598 -19.53873047 11.22450195 -18.45996094 10.61572266 C-16.45564299 9.48476452 -14.45109843 8.35420787 -12.44628906 7.22412109 C-11.09229004 6.45962646 -11.09229004 6.45962646 -9.7109375 5.6796875 C-8.91993652 5.23351074 -8.12893555 4.78733398 -7.31396484 4.32763672 C-4.85588954 2.91731666 -2.42555572 1.46542873 0 0 Z " fill="#3BA557" transform="translate(369,14)"/>
<path d="M0 0 C0 0.99 0 1.98 0 3 C-0.69746338 3.38631592 -1.39492676 3.77263184 -2.11352539 4.1706543 C-17.1792714 12.51887468 -32.2147168 20.91642733 -47.19824219 29.41162109 C-54.77806339 33.70879056 -62.36257972 37.99763661 -69.95117188 42.27929688 C-72.08836423 43.48548936 -74.22503905 44.69259907 -76.36132812 45.90039062 C-79.7807658 47.83261372 -83.20261084 49.76051044 -86.625 51.6875 C-88.21707275 52.58843384 -88.21707275 52.58843384 -89.84130859 53.50756836 C-90.83469238 54.06581299 -91.82807617 54.62405762 -92.8515625 55.19921875 C-94.16374756 55.93918091 -94.16374756 55.93918091 -95.50244141 56.6940918 C-97.9535172 57.97569536 -100.41499283 59.02098865 -103 60 C-105.69996027 54.03107956 -108.00297626 48.90794597 -106.015625 42.4375 C-97.5518262 22.12438288 -82.99557567 7.44904138 -62.92333984 -1.23828125 C-58.40268702 -3.0286388 -53.76829885 -4.1164408 -49 -5 C-48.23816406 -5.18175781 -47.47632813 -5.36351562 -46.69140625 -5.55078125 C-30.82567208 -8.19890814 -15.15815623 -4.4434512 0 0 Z " fill="#3EB45D" transform="translate(368,10)"/>
<path d="M0 0 C12.59968483 4.4251442 24.1387143 10.45973099 34.0625 19.5 C35.02800781 20.37269531 35.99351562 21.24539062 36.98828125 22.14453125 C43.84964677 28.56714576 49.1065516 35.49975539 54.1015625 43.4453125 C55.88936778 46.46890873 55.88936778 46.46890873 58.0625 48.5 C58.475 47.60539062 58.8875 46.71078125 59.3125 45.7890625 C63.0607795 37.86246321 67.14349836 31.055707 73.0625 24.5 C73.62710938 23.86578125 74.19171875 23.2315625 74.7734375 22.578125 C87.9395042 8.60849555 107.00524068 0.15162156 126.0859375 -0.73828125 C139.08706205 -1.06480032 150.3999038 1.32502499 162.75 5.3125 C166.49821579 6.50424041 169.20250183 6.61736789 173.0625 5.5 C173.3925 7.15 173.7225 8.8 174.0625 10.5 C173.0725 10.83 172.0825 11.16 171.0625 11.5 C170.95292969 12.62921875 170.84335937 13.7584375 170.73046875 14.921875 C170.12708085 19.71106903 168.84980553 24.16368606 167.375 28.75 C167.1080835 29.58192871 166.84116699 30.41385742 166.56616211 31.27099609 C163.06753031 41.86239274 158.49515801 51.11849203 151.0625 59.5 C150.28261719 60.38558594 149.50273437 61.27117188 148.69921875 62.18359375 C136.84278573 74.84802072 120.06451464 84.5953559 102.39038086 85.66113281 C99.26014531 85.707044 96.13054402 85.73527669 93 85.75 C91.39608398 85.7809375 91.39608398 85.7809375 89.75976562 85.8125 C82.05406537 85.8497481 75.4732008 84.61893627 68.0625 82.5 C68.0625 87.45 68.0625 92.4 68.0625 97.5 C71.68894214 96.90366519 75.31346694 96.29816734 78.9375 95.6875 C79.95070313 95.52185547 80.96390625 95.35621094 82.0078125 95.18554688 C87.80777602 94.20029666 93.32900534 92.94901433 98.91064453 91.0793457 C101.0625 90.5 101.0625 90.5 105.0625 90.5 C105.0625 91.16 105.0625 91.82 105.0625 92.5 C90.37810188 98.40372741 73.94008024 102.03822306 58.0625 101.5 C58.0625 101.17 58.0625 100.84 58.0625 100.5 C51.1325 100.005 51.1325 100.005 44.0625 99.5 C44.0625 99.17 44.0625 98.84 44.0625 98.5 C51.3225 98.5 58.5825 98.5 66.0625 98.5 C63.59907992 68.93895898 55.89593712 41.86647118 32.76953125 21.51171875 C19.6464727 10.53150619 0.27784447 -1.28088082 -17.44921875 -0.37109375 C-21.54827836 0.4457745 -23.5067496 1.05874349 -26.5 4.125 C-28.36092197 8.49412114 -28.53762714 10.77399881 -27.9375 15.5 C-25.19547506 20.00475526 -22.37076528 21.86603179 -17.34375 23.17578125 C-16.3846875 23.38589844 -15.425625 23.59601562 -14.4375 23.8125 C3.89617108 28.29010375 19.49788384 38.08672376 29.9375 54.0625 C31.0051405 55.85982286 32.04793415 57.67219207 33.0625 59.5 C33.54589844 60.36882813 34.02929688 61.23765625 34.52734375 62.1328125 C37.19118044 67.18252031 38.92321222 71.90713271 40.0625 77.5 C39.0725 77.5 38.0825 77.5 37.0625 77.5 C36.62679687 76.44941406 36.19109375 75.39882812 35.7421875 74.31640625 C32.47990263 66.57147981 29.30319921 59.14490569 24.0625 52.5 C23.44117188 51.69304688 22.81984375 50.88609375 22.1796875 50.0546875 C11.05572197 36.63204275 -4.51821859 30.02910045 -21.02734375 25.58984375 C-25.26320878 24.00352651 -28.06426284 22.09877546 -30.25390625 18.08984375 C-31.59325315 13.01563236 -31.40423745 7.1411531 -28.8203125 2.48828125 C-21.70930825 -6.20060856 -9.4400243 -3.14161905 0 0 Z M83.0625 18.5 C82.28261719 19.10457031 81.50273437 19.70914062 80.69921875 20.33203125 C70.18010821 28.96169879 63.49302638 40.81380786 59 53.5 C59.10417782 58.50053518 61.16416749 62.9211894 63.0625 67.5 C66.34006052 66.23926126 69.43394083 64.84670898 72.51953125 63.171875 C73.37224609 62.70910156 74.22496094 62.24632812 75.10351562 61.76953125 C76.01810547 61.26808594 76.93269531 60.76664063 77.875 60.25 C78.83986328 59.72277344 79.80472656 59.19554687 80.79882812 58.65234375 C88.9837379 54.15143393 97.04443924 49.45225201 105.09472656 44.71606445 C112.5894485 40.32116821 120.17087193 36.1161489 127.81298828 31.98413086 C134.72552044 28.24270876 141.59267698 24.42639793 148.4375 20.5625 C149.85494507 19.76477173 149.85494507 19.76477173 151.30102539 18.95092773 C156.64258427 15.92782863 161.88299719 12.79329043 167.0625 9.5 C166.27100702 7.35463296 166.27100702 7.35463296 164.31591797 6.82983398 C163.56971191 6.63719971 162.82350586 6.44456543 162.0546875 6.24609375 C161.23226562 6.03146484 160.40984375 5.81683594 159.5625 5.59570312 C158.69625 5.37849609 157.83 5.16128906 156.9375 4.9375 C155.67292969 4.60588867 155.67292969 4.60588867 154.3828125 4.26757812 C129.03142648 -2.24741316 103.6653795 1.73021436 83.0625 18.5 Z M167.0625 11.5 C154.59488702 18.42397793 142.16788837 25.39472337 129.875 32.625 C121.46440204 37.56862346 112.97113712 42.31519505 104.38378906 46.94384766 C94.29572543 52.40745536 84.42082179 58.23068779 74.53564453 64.05078125 C71.39214534 65.89281592 68.23127882 67.70186125 65.0625 69.5 C64.94929144 74.58303686 64.94929144 74.58303686 66.0625 79.5 C73.93440482 82.73520318 82.48152914 83.01759873 90.875 82.9375 C92.58393433 82.92396484 92.58393433 82.92396484 94.32739258 82.91015625 C115.2448309 82.4814165 132.88063207 73.97995605 147.45703125 59.046875 C158.03219071 47.01245163 165.5075446 30.3302705 168.0625 14.5 C167.5675 13.015 167.5675 13.015 167.0625 11.5 Z " fill="#050C06" transform="translate(201.9375,2.5)"/>
<path d="M0 0 C0.99 1.485 0.99 1.485 2 3 C1.67 3.99 1.34 4.98 1 6 C0.34 6 -0.32 6 -1 6 C-1.10957031 7.12921875 -1.21914063 8.2584375 -1.33203125 9.421875 C-1.93541915 14.21106903 -3.21269447 18.66368606 -4.6875 23.25 C-4.9544165 24.08192871 -5.22133301 24.91385742 -5.49633789 25.77099609 C-8.99496969 36.36239274 -13.56734199 45.61849203 -21 54 C-21.77988281 54.88558594 -22.55976563 55.77117188 -23.36328125 56.68359375 C-34.92347537 69.03159369 -50.10652866 77.52840615 -67 80 C-69.78075485 80.068089 -72.53364739 80.09478336 -75.3125 80.0625 C-76.05306641 80.05798828 -76.79363281 80.05347656 -77.55664062 80.04882812 C-79.37112899 80.03712175 -81.18557534 80.01918898 -83 80 C-83 79.34 -83 78.68 -83 78 C-81.77925781 77.82984375 -80.55851562 77.6596875 -79.30078125 77.484375 C-56.42211415 74.17403189 -35.37039277 67.17281425 -20.8984375 47.88671875 C-12.54001405 35.17709956 -5.84614944 19.42998214 -3.60327148 4.32885742 C-3 2 -3 2 0 0 Z " fill="#020603" transform="translate(374,8)"/>
<path d="M0 0 C0.33 0 0.66 0 1 0 C1.32355268 7.62930324 1.62156947 15.25912758 1.88867188 22.890625 C1.95226854 24.66686876 2.0191091 26.44301922 2.09570312 28.21875 C3.57814092 62.88498767 -7.33310101 99.81289325 -20.3125 131.5625 C-20.73305664 132.59858398 -21.15361328 133.63466797 -21.58691406 134.70214844 C-21.98749023 135.64735352 -22.38806641 136.59255859 -22.80078125 137.56640625 C-23.15309814 138.40115479 -23.50541504 139.23590332 -23.8684082 140.09594727 C-25 142 -25 142 -28 143 C-27.37872684 139.37129249 -26.38217938 136.20883804 -24.9609375 132.81640625 C-24.54875977 131.81834961 -24.13658203 130.82029297 -23.71191406 129.79199219 C-23.0501416 128.19339355 -23.0501416 128.19339355 -22.375 126.5625 C-13.82186388 105.42080807 -8.04275868 84.45869838 -4 62 C-3.82452637 61.04109863 -3.64905273 60.08219727 -3.46826172 59.09423828 C-0.04126463 39.61315969 -0.27106996 19.72221194 0 0 Z " fill="#110303" transform="translate(489,241)"/>
<path d="M0 0 C26.34211049 6.37309125 45.84989682 25.66140152 59.625 48.1875 C62.96698547 53.80259776 65.81843001 59.6064959 68.5 65.5625 C68.83854004 66.31233154 69.17708008 67.06216309 69.52587891 67.8347168 C71.28706955 71.88654976 72.49582516 75.56746283 73 80 C71.515 79.505 71.515 79.505 70 79 C68.89453125 76.40234375 68.89453125 76.40234375 67.8125 72.9375 C61.8271668 54.99313597 52.07241224 39.65233441 39 26 C38.41605469 25.36449219 37.83210938 24.72898438 37.23046875 24.07421875 C27.20829325 13.48873596 13.67745182 6.65033362 0 2 C0 1.34 0 0.68 0 0 Z " fill="#240608" transform="translate(388,105)"/>
<path d="M0 0 C0.66 0 1.32 0 2 0 C5 6.5 5 6.5 5 11 C5.98742187 10.41089844 6.97484375 9.82179688 7.9921875 9.21484375 C9.28621126 8.45530807 10.58049567 7.69621634 11.875 6.9375 C12.52597656 6.54755859 13.17695313 6.15761719 13.84765625 5.75585938 C15.53065725 4.77555467 17.26296199 3.88101568 19 3 C19.66 3.33 20.32 3.66 21 4 C21 4.66 21 5.32 21 6 C16.71 8.31 12.42 10.62 8 13 C8 16.3 8 19.6 8 23 C18.65021831 25.10201677 29.17146252 25.59339484 40 26 C40 26.33 40 26.66 40 27 C37.03 27 34.06 27 31 27 C31 27.66 31 28.32 31 29 C23.52605426 29.37369729 17.17859349 28.04061541 10 26 C9.67 26.99 9.34 27.98 9 29 C8.34 29 7.68 29 7 29 C6.89453857 28.44127197 6.78907715 27.88254395 6.68041992 27.30688477 C6.18914632 24.72416641 5.6883751 22.14337279 5.1875 19.5625 C5.02185547 18.68400391 4.85621094 17.80550781 4.68554688 16.90039062 C3.54864605 11.08718075 2.01959066 5.56855527 0 0 Z " fill="#0B2011" transform="translate(260,59)"/>
<path d="M0 0 C0.33 0 0.66 0 1 0 C1.32355268 7.62930324 1.62156947 15.25912758 1.88867188 22.890625 C1.95226854 24.66686876 2.0191091 26.44301922 2.09570312 28.21875 C2.78571652 44.35444791 0.95887368 63.52647749 -4 79 C-5.485 79.99 -5.485 79.99 -7 81 C-6.2692859 73.76136348 -5.18130175 66.61519218 -4 59.4375 C-3.64450426 57.26974879 -3.29030813 55.101784 -2.9375 52.93359375 C-2.78152344 51.98540771 -2.62554687 51.03722168 -2.46484375 50.06030273 C-1.42673168 43.22588322 -0.82575453 36.59277041 -0.68359375 29.6875 C-0.66281265 28.83317383 -0.64203156 27.97884766 -0.62062073 27.09863281 C-0.55581401 24.39916158 -0.49656435 21.69960235 -0.4375 19 C-0.39424908 17.15754339 -0.35063282 15.31509531 -0.30664062 13.47265625 C-0.20020443 8.98185846 -0.09874807 4.49097316 0 0 Z " fill="#170405" transform="translate(489,241)"/>
<path d="M0 0 C-0.66 0 -1.32 0 -2 0 C-2 0.66 -2 1.32 -2 2 C-6.44147569 2.85916096 -10.62769824 3.11697565 -15.1484375 3.09765625 C-16.13452499 3.09553383 -16.13452499 3.09553383 -17.14053345 3.09336853 C-19.21873731 3.08781762 -21.29682927 3.07527465 -23.375 3.0625 C-24.79296718 3.05747864 -26.21093607 3.05291685 -27.62890625 3.04882812 C-31.08597322 3.03786437 -34.54297567 3.02063421 -38 3 C-38.33 2.01 -38.66 1.02 -39 0 C-37.78268188 0.00785522 -37.78268188 0.00785522 -36.54077148 0.01586914 C-32.83968896 0.03674338 -29.13861887 0.04969336 -25.4375 0.0625 C-24.16068359 0.07087891 -22.88386719 0.07925781 -21.56835938 0.08789062 C-20.32763672 0.09111328 -19.08691406 0.09433594 -17.80859375 0.09765625 C-16.67220459 0.10289307 -15.53581543 0.10812988 -14.36499023 0.11352539 C-0.94253051 -0.33931099 -0.94253051 -0.33931099 0 0 Z " fill="#120304" transform="translate(234,509)"/>
<path d="M0 0 C0.33 0 0.66 0 1 0 C2.5959253 37.63157895 2.5959253 37.63157895 1 50 C0.34 50 -0.32 50 -1 50 C-0.67 33.5 -0.34 17 0 0 Z " fill="#2D080A" transform="translate(489,241)"/>
<path d="M0 0 C6.54849313 1.16204993 12.74538144 2.73383385 19 5 C19 6.65 19 8.3 19 10 C18.34 10.2475 17.68 10.495 17 10.75 C13.80656222 12.08059907 10.81001193 13.64773733 7.76953125 15.29296875 C7.18558594 15.52628906 6.60164063 15.75960938 6 16 C5.34 15.67 4.68 15.34 4 15 C6.30283254 12.45868642 8.67313793 10.92889705 11.6875 9.3125 C12.49574219 8.87550781 13.30398438 8.43851563 14.13671875 7.98828125 C14.75160156 7.66214844 15.36648438 7.33601562 16 7 C11.97327124 4.78099508 7.80298165 3.86324321 3.36328125 2.78125 C2.19345703 2.39453125 2.19345703 2.39453125 1 2 C0.67 1.34 0.34 0.68 0 0 Z " fill="#0A1D0F" transform="translate(352,5)"/>
<path d="M0 0 C0.66 0 1.32 0 2 0 C5 6.5 5 6.5 5 11 C5.98742187 10.41089844 6.97484375 9.82179688 7.9921875 9.21484375 C9.28621126 8.45530807 10.58049567 7.69621634 11.875 6.9375 C12.52597656 6.54755859 13.17695313 6.15761719 13.84765625 5.75585938 C15.53065725 4.77555467 17.26296199 3.88101568 19 3 C19.66 3.33 20.32 3.66 21 4 C21 4.66 21 5.32 21 6 C18.87767021 7.17176518 16.75242209 8.33754785 14.625 9.5 C14.02171875 9.83386719 13.4184375 10.16773437 12.796875 10.51171875 C8.2265625 13 8.2265625 13 6 13 C5.67 13.99 5.34 14.98 5 16 C3.35 10.72 1.7 5.44 0 0 Z " fill="#08170C" transform="translate(260,59)"/>
<path d="M0 0 C0.99 0 1.98 0 3 0 C3.67363372 2.72761511 4.33909444 5.456799 5 8.1875 C5.28617187 9.34088867 5.28617187 9.34088867 5.578125 10.51757812 C6.51623421 14.42078253 7.25957208 17.95229795 7 22 C6.34 22.33 5.68 22.66 5 23 C4.80664062 22.01 4.61328125 21.02 4.4140625 20 C3.09416609 13.29187055 1.75395318 6.61105428 0 0 Z " fill="#180405" transform="translate(480,186)"/>
<path d="M0 0 C1.3297259 3.71065403 0.68694674 6.41674866 -0.25 10.1875 C-0.50265625 11.25355469 -0.7553125 12.31960938 -1.015625 13.41796875 C-1.34046875 14.27003906 -1.6653125 15.12210937 -2 16 C-2.99 16.33 -3.98 16.66 -5 17 C-4.35841048 14.35307023 -3.71195217 11.70750071 -3.0625 9.0625 C-2.88009766 8.30775391 -2.69769531 7.55300781 -2.50976562 6.77539062 C-1.11328125 1.11328125 -1.11328125 1.11328125 0 0 Z " fill="#050001" transform="translate(483,321)"/>
<path d="M0 0 C0.33 0 0.66 0 1 0 C1.33 5.28 1.66 10.56 2 16 C1.34 16 0.68 16 0 16 C-1.74706142 10.75881575 -1.32791716 5.31166864 0 0 Z " fill="#280709" transform="translate(23,279)"/>
<path d="M0 0 C0.66 0 1.32 0 2 0 C2.99 3.3 3.98 6.6 5 10 C4.01 10 3.02 10 2 10 C1.01 7.03 0.02 4.06 -1 1 C-0.67 0.67 -0.34 0.34 0 0 Z " fill="#061109" transform="translate(237,70)"/>
<path d="M0 0 C0.33 0.66 0.66 1.32 1 2 C-5.0546875 2.9765625 -5.0546875 2.9765625 -7 3 C-7.66 2.34 -8.32 1.68 -9 1 C-5.8035914 -0.06546953 -3.34252724 -0.07427838 0 0 Z " fill="#091A0D" transform="translate(323,3)"/>
<path d="M0 0 C-0.66 0 -1.32 0 -2 0 C-2 0.66 -2 1.32 -2 2 C-4.97 1.67 -7.94 1.34 -11 1 C-11 0.67 -11 0.34 -11 0 C-3.57142857 -1.28571429 -3.57142857 -1.28571429 0 0 Z " fill="#2B0709" transform="translate(234,509)"/>
<path d="M0 0 C-0.33 0.99 -0.66 1.98 -1 3 C-2.32 3 -3.64 3 -5 3 C-5 2.34 -5 1.68 -5 1 C-5.66 0.67 -6.32 0.34 -7 0 C-3.98968256 -0.93423645 -3.13349732 -1.04449911 0 0 Z " fill="#07150B" transform="translate(317,83)"/>
</svg>
